<mxfile host="app.diagrams.net" agent="Mozilla/5.0 (Windows NT 10.0; Win64; x64) AppleWebKit/537.36 (KHTML, like Gecko) Chrome/130.0.0.0 Safari/537.36" version="24.8.3">
  <diagram name="PÃ¡gina-1" id="2lHHYerKlnEtlwWDSVPK">
    <mxGraphModel dx="590" dy="1014" grid="1" gridSize="10" guides="1" tooltips="1" connect="1" arrows="1" fold="1" page="1" pageScale="1" pageWidth="827" pageHeight="1169" math="0" shadow="0">
      <root>
        <mxCell id="0" />
        <mxCell id="1" parent="0" />
        <mxCell id="n3-XZlE6_MYXK0TuiOmz-1" value="" style="swimlane;shape=mxgraph.bootstrap.anchor;strokeColor=#666666;fillColor=#ffffff;fontColor=#666666;fontStyle=0;childLayout=stackLayout;horizontal=0;startSize=0;horizontalStack=1;resizeParent=1;resizeParentMax=0;resizeLast=0;collapsible=0;marginBottom=0;whiteSpace=wrap;html=1;" vertex="1" parent="1">
          <mxGeometry x="190" y="50" width="500" height="50" as="geometry" />
        </mxCell>
        <mxCell id="n3-XZlE6_MYXK0TuiOmz-2" value="Alumnos" style="text;strokeColor=#008CFF;align=center;verticalAlign=middle;spacingLeft=10;spacingRight=10;overflow=hidden;points=[[0,0.5],[1,0.5]];portConstraint=eastwest;rotatable=0;whiteSpace=wrap;html=1;shape=mxgraph.mockup.leftButton;rSize=10;fillColor=#008CFF;fontColor=#ffffff;fontSize=17;fontStyle=1;" vertex="1" parent="n3-XZlE6_MYXK0TuiOmz-1">
          <mxGeometry width="125" height="50" as="geometry" />
        </mxCell>
        <mxCell id="n3-XZlE6_MYXK0TuiOmz-3" value="Padres" style="text;strokeColor=inherit;align=center;verticalAlign=middle;spacingLeft=10;spacingRight=10;overflow=hidden;points=[[0,0.5],[1,0.5]];portConstraint=eastwest;rotatable=0;whiteSpace=wrap;html=1;rSize=5;fillColor=inherit;fontColor=inherit;fontSize=17;fontStyle=1;" vertex="1" parent="n3-XZlE6_MYXK0TuiOmz-1">
          <mxGeometry x="125" width="125" height="50" as="geometry" />
        </mxCell>
        <mxCell id="n3-XZlE6_MYXK0TuiOmz-4" value="Evalucion" style="text;strokeColor=inherit;align=center;verticalAlign=middle;spacingLeft=10;spacingRight=10;overflow=hidden;points=[[0,0.5],[1,0.5]];portConstraint=eastwest;rotatable=0;whiteSpace=wrap;html=1;rSize=5;fillColor=inherit;fontColor=inherit;fontSize=17;fontStyle=1;" vertex="1" parent="n3-XZlE6_MYXK0TuiOmz-1">
          <mxGeometry x="250" width="125" height="50" as="geometry" />
        </mxCell>
        <mxCell id="n3-XZlE6_MYXK0TuiOmz-5" value="Notas" style="text;strokeColor=inherit;align=center;verticalAlign=middle;spacingLeft=10;spacingRight=10;overflow=hidden;points=[[0,0.5],[1,0.5]];portConstraint=eastwest;rotatable=0;whiteSpace=wrap;html=1;shape=mxgraph.mockup.rightButton;rSize=10;fillColor=inherit;fontColor=inherit;fontSize=17;fontStyle=1;" vertex="1" parent="n3-XZlE6_MYXK0TuiOmz-1">
          <mxGeometry x="375" width="125" height="50" as="geometry" />
        </mxCell>
        <mxCell id="n3-XZlE6_MYXK0TuiOmz-6" value="" style="endArrow=classic;html=1;rounded=0;exitX=0.515;exitY=1.049;exitDx=0;exitDy=0;exitPerimeter=0;entryX=0.613;entryY=0.022;entryDx=0;entryDy=0;entryPerimeter=0;" edge="1" parent="1" source="n3-XZlE6_MYXK0TuiOmz-2" target="n3-XZlE6_MYXK0TuiOmz-17">
          <mxGeometry width="50" height="50" relative="1" as="geometry">
            <mxPoint x="230" y="170" as="sourcePoint" />
            <mxPoint x="254" y="160" as="targetPoint" />
          </mxGeometry>
        </mxCell>
        <mxCell id="n3-XZlE6_MYXK0TuiOmz-16" value="" style="swimlane;strokeColor=#999999;swimlaneFillColor=#FFFFFF;fillColor=#ffffff;fontColor=#666666;fontStyle=0;childLayout=stackLayout;horizontal=1;startSize=0;horizontalStack=0;resizeParent=1;resizeParentMax=0;resizeLast=0;collapsible=0;marginBottom=0;whiteSpace=wrap;html=1;" vertex="1" parent="1">
          <mxGeometry x="165" y="170" width="150" height="120" as="geometry" />
        </mxCell>
        <mxCell id="n3-XZlE6_MYXK0TuiOmz-17" value="Option 1" style="text;strokeColor=none;align=left;verticalAlign=middle;spacingLeft=27;spacingRight=10;overflow=hidden;points=[[0,0.5],[1,0.5]];portConstraint=eastwest;rotatable=0;whiteSpace=wrap;html=1;fillColor=none;fontColor=inherit;fontSize=17;" vertex="1" parent="n3-XZlE6_MYXK0TuiOmz-16">
          <mxGeometry width="150" height="30" as="geometry" />
        </mxCell>
        <mxCell id="n3-XZlE6_MYXK0TuiOmz-18" value="" style="resizable=0;fillColor=#EEEEEE;strokeColor=#999999;gradientColor=#cccccc;html=1;" vertex="1" parent="n3-XZlE6_MYXK0TuiOmz-17">
          <mxGeometry y="0.5" width="15" height="15" relative="1" as="geometry">
            <mxPoint x="8" y="-7.5" as="offset" />
          </mxGeometry>
        </mxCell>
        <mxCell id="n3-XZlE6_MYXK0TuiOmz-19" value="Option 2" style="text;strokeColor=none;align=left;verticalAlign=middle;spacingLeft=27;spacingRight=10;overflow=hidden;points=[[0,0.5],[1,0.5]];portConstraint=eastwest;rotatable=0;whiteSpace=wrap;html=1;rSize=5;fillColor=none;fontColor=inherit;fontSize=17;" vertex="1" parent="n3-XZlE6_MYXK0TuiOmz-16">
          <mxGeometry y="30" width="150" height="30" as="geometry" />
        </mxCell>
        <mxCell id="n3-XZlE6_MYXK0TuiOmz-20" value="" style="resizable=0;fillColor=#EEEEEE;strokeColor=#999999;gradientColor=#cccccc;html=1;" vertex="1" parent="n3-XZlE6_MYXK0TuiOmz-19">
          <mxGeometry y="0.5" width="15" height="15" relative="1" as="geometry">
            <mxPoint x="8" y="-7.5" as="offset" />
          </mxGeometry>
        </mxCell>
        <mxCell id="n3-XZlE6_MYXK0TuiOmz-21" value="Option 3" style="text;strokeColor=none;align=left;verticalAlign=middle;spacingLeft=27;spacingRight=10;overflow=hidden;points=[[0,0.5],[1,0.5]];portConstraint=eastwest;rotatable=0;whiteSpace=wrap;html=1;rSize=5;fillColor=none;fontColor=#008CFF;fontSize=17;" vertex="1" parent="n3-XZlE6_MYXK0TuiOmz-16">
          <mxGeometry y="60" width="150" height="30" as="geometry" />
        </mxCell>
        <mxCell id="n3-XZlE6_MYXK0TuiOmz-22" value="" style="shape=mxgraph.mockup.forms.checkbox;resizable=0;fillColor=#AAAAAA;gradientColor=#666666;strokeColor=#444444;html=1;" vertex="1" parent="n3-XZlE6_MYXK0TuiOmz-21">
          <mxGeometry y="0.5" width="15" height="15" relative="1" as="geometry">
            <mxPoint x="8" y="-7.5" as="offset" />
          </mxGeometry>
        </mxCell>
        <mxCell id="n3-XZlE6_MYXK0TuiOmz-23" value="Option 4" style="text;strokeColor=none;align=left;verticalAlign=middle;spacingLeft=27;spacingRight=10;overflow=hidden;points=[[0,0.5],[1,0.5]];portConstraint=eastwest;rotatable=0;whiteSpace=wrap;html=1;fillColor=none;fontColor=inherit;fontSize=17;" vertex="1" parent="n3-XZlE6_MYXK0TuiOmz-16">
          <mxGeometry y="90" width="150" height="30" as="geometry" />
        </mxCell>
        <mxCell id="n3-XZlE6_MYXK0TuiOmz-24" value="" style="resizable=0;fillColor=#EEEEEE;strokeColor=#999999;gradientColor=#cccccc;html=1;" vertex="1" parent="n3-XZlE6_MYXK0TuiOmz-23">
          <mxGeometry y="0.5" width="15" height="15" relative="1" as="geometry">
            <mxPoint x="8" y="-7.5" as="offset" />
          </mxGeometry>
        </mxCell>
        <mxCell id="n3-XZlE6_MYXK0TuiOmz-25" value="" style="swimlane;strokeColor=#999999;swimlaneFillColor=#FFFFFF;fillColor=#ffffff;fontColor=#666666;fontStyle=0;childLayout=stackLayout;horizontal=1;startSize=0;horizontalStack=0;resizeParent=1;resizeParentMax=0;resizeLast=0;collapsible=0;marginBottom=0;whiteSpace=wrap;html=1;" vertex="1" parent="1">
          <mxGeometry x="315" y="170" width="125" height="120" as="geometry" />
        </mxCell>
        <mxCell id="n3-XZlE6_MYXK0TuiOmz-26" value="Option 1" style="text;strokeColor=none;align=left;verticalAlign=middle;spacingLeft=27;spacingRight=10;overflow=hidden;points=[[0,0.5],[1,0.5]];portConstraint=eastwest;rotatable=0;whiteSpace=wrap;html=1;fillColor=none;fontColor=inherit;fontSize=17;" vertex="1" parent="n3-XZlE6_MYXK0TuiOmz-25">
          <mxGeometry width="125" height="30" as="geometry" />
        </mxCell>
        <mxCell id="n3-XZlE6_MYXK0TuiOmz-27" value="" style="resizable=0;fillColor=#EEEEEE;strokeColor=#999999;gradientColor=#cccccc;html=1;" vertex="1" parent="n3-XZlE6_MYXK0TuiOmz-26">
          <mxGeometry y="0.5" width="15" height="15" relative="1" as="geometry">
            <mxPoint x="8" y="-7.5" as="offset" />
          </mxGeometry>
        </mxCell>
        <mxCell id="n3-XZlE6_MYXK0TuiOmz-28" value="Option 2" style="text;strokeColor=none;align=left;verticalAlign=middle;spacingLeft=27;spacingRight=10;overflow=hidden;points=[[0,0.5],[1,0.5]];portConstraint=eastwest;rotatable=0;whiteSpace=wrap;html=1;rSize=5;fillColor=none;fontColor=inherit;fontSize=17;" vertex="1" parent="n3-XZlE6_MYXK0TuiOmz-25">
          <mxGeometry y="30" width="125" height="30" as="geometry" />
        </mxCell>
        <mxCell id="n3-XZlE6_MYXK0TuiOmz-29" value="" style="resizable=0;fillColor=#EEEEEE;strokeColor=#999999;gradientColor=#cccccc;html=1;" vertex="1" parent="n3-XZlE6_MYXK0TuiOmz-28">
          <mxGeometry y="0.5" width="15" height="15" relative="1" as="geometry">
            <mxPoint x="8" y="-7.5" as="offset" />
          </mxGeometry>
        </mxCell>
        <mxCell id="n3-XZlE6_MYXK0TuiOmz-30" value="Option 3" style="text;strokeColor=none;align=left;verticalAlign=middle;spacingLeft=27;spacingRight=10;overflow=hidden;points=[[0,0.5],[1,0.5]];portConstraint=eastwest;rotatable=0;whiteSpace=wrap;html=1;rSize=5;fillColor=none;fontColor=#008CFF;fontSize=17;" vertex="1" parent="n3-XZlE6_MYXK0TuiOmz-25">
          <mxGeometry y="60" width="125" height="30" as="geometry" />
        </mxCell>
        <mxCell id="n3-XZlE6_MYXK0TuiOmz-31" value="" style="shape=mxgraph.mockup.forms.checkbox;resizable=0;fillColor=#AAAAAA;gradientColor=#666666;strokeColor=#444444;html=1;" vertex="1" parent="n3-XZlE6_MYXK0TuiOmz-30">
          <mxGeometry y="0.5" width="15" height="15" relative="1" as="geometry">
            <mxPoint x="8" y="-7.5" as="offset" />
          </mxGeometry>
        </mxCell>
        <mxCell id="n3-XZlE6_MYXK0TuiOmz-32" value="Option 4" style="text;strokeColor=none;align=left;verticalAlign=middle;spacingLeft=27;spacingRight=10;overflow=hidden;points=[[0,0.5],[1,0.5]];portConstraint=eastwest;rotatable=0;whiteSpace=wrap;html=1;fillColor=none;fontColor=inherit;fontSize=17;" vertex="1" parent="n3-XZlE6_MYXK0TuiOmz-25">
          <mxGeometry y="90" width="125" height="30" as="geometry" />
        </mxCell>
        <mxCell id="n3-XZlE6_MYXK0TuiOmz-33" value="" style="resizable=0;fillColor=#EEEEEE;strokeColor=#999999;gradientColor=#cccccc;html=1;" vertex="1" parent="n3-XZlE6_MYXK0TuiOmz-32">
          <mxGeometry y="0.5" width="15" height="15" relative="1" as="geometry">
            <mxPoint x="8" y="-7.5" as="offset" />
          </mxGeometry>
        </mxCell>
        <mxCell id="n3-XZlE6_MYXK0TuiOmz-34" value="" style="endArrow=classic;html=1;rounded=0;exitX=0.456;exitY=1.08;exitDx=0;exitDy=0;exitPerimeter=0;entryX=0.449;entryY=-0.033;entryDx=0;entryDy=0;entryPerimeter=0;" edge="1" parent="1" source="n3-XZlE6_MYXK0TuiOmz-3" target="n3-XZlE6_MYXK0TuiOmz-26">
          <mxGeometry width="50" height="50" relative="1" as="geometry">
            <mxPoint x="330" y="320" as="sourcePoint" />
            <mxPoint x="380" y="270" as="targetPoint" />
          </mxGeometry>
        </mxCell>
        <mxCell id="n3-XZlE6_MYXK0TuiOmz-35" value="Evaluaciones" style="swimlane;strokeColor=#999999;swimlaneFillColor=#FFFFFF;fillColor=#ffffff;fontColor=#008CFF;fontStyle=0;childLayout=stackLayout;horizontal=1;startSize=30;horizontalStack=0;resizeParent=1;resizeParentMax=0;resizeLast=0;collapsible=0;marginBottom=0;whiteSpace=wrap;html=1;fontSize=17;" vertex="1" parent="1">
          <mxGeometry x="440" y="170" width="120" height="180" as="geometry" />
        </mxCell>
        <mxCell id="n3-XZlE6_MYXK0TuiOmz-36" value="1Âª Eva." style="text;spacing=0;strokeColor=none;align=left;verticalAlign=middle;spacingLeft=7;spacingRight=10;overflow=hidden;points=[[0,0.5],[1,0.5]];portConstraint=eastwest;rotatable=0;whiteSpace=wrap;html=1;fillColor=none;fontColor=#666666;fontSize=17;" vertex="1" parent="n3-XZlE6_MYXK0TuiOmz-35">
          <mxGeometry y="30" width="120" height="20" as="geometry" />
        </mxCell>
        <mxCell id="n3-XZlE6_MYXK0TuiOmz-37" value="2Âª Eva" style="text;spacing=0;strokeColor=none;align=left;verticalAlign=middle;spacingLeft=7;spacingRight=10;overflow=hidden;points=[[0,0.5],[1,0.5]];portConstraint=eastwest;rotatable=0;whiteSpace=wrap;html=1;rSize=5;fillColor=none;fontColor=#666666;fontSize=17;" vertex="1" parent="n3-XZlE6_MYXK0TuiOmz-35">
          <mxGeometry y="50" width="120" height="20" as="geometry" />
        </mxCell>
        <mxCell id="n3-XZlE6_MYXK0TuiOmz-38" value="3Âª Eva" style="text;spacing=0;strokeColor=none;align=left;verticalAlign=middle;spacingLeft=7;spacingRight=10;overflow=hidden;points=[[0,0.5],[1,0.5]];portConstraint=eastwest;rotatable=0;whiteSpace=wrap;html=1;rSize=5;fillColor=#DDEEFF;fontColor=#666666;fontSize=17;" vertex="1" parent="n3-XZlE6_MYXK0TuiOmz-35">
          <mxGeometry y="70" width="120" height="20" as="geometry" />
        </mxCell>
        <mxCell id="n3-XZlE6_MYXK0TuiOmz-40" value="" style="text;spacing=0;strokeColor=none;align=left;verticalAlign=middle;spacingLeft=7;spacingRight=10;overflow=hidden;points=[[0,0.5],[1,0.5]];portConstraint=eastwest;rotatable=0;whiteSpace=wrap;html=1;fillColor=none;fontColor=#666666;fontSize=17;" vertex="1" parent="n3-XZlE6_MYXK0TuiOmz-35">
          <mxGeometry y="90" width="120" height="90" as="geometry" />
        </mxCell>
        <mxCell id="n3-XZlE6_MYXK0TuiOmz-41" value="" style="endArrow=classic;html=1;rounded=0;exitX=0.463;exitY=0.997;exitDx=0;exitDy=0;exitPerimeter=0;entryX=0.5;entryY=0;entryDx=0;entryDy=0;" edge="1" parent="1" source="n3-XZlE6_MYXK0TuiOmz-4" target="n3-XZlE6_MYXK0TuiOmz-35">
          <mxGeometry width="50" height="50" relative="1" as="geometry">
            <mxPoint x="480" y="160" as="sourcePoint" />
            <mxPoint x="530" y="110" as="targetPoint" />
          </mxGeometry>
        </mxCell>
        <mxCell id="n3-XZlE6_MYXK0TuiOmz-42" value="" style="swimlane;strokeColor=#999999;swimlaneFillColor=#FFFFFF;fillColor=#ffffff;fontColor=#666666;fontStyle=0;childLayout=stackLayout;horizontal=1;startSize=0;horizontalStack=0;resizeParent=1;resizeParentMax=0;resizeLast=0;collapsible=0;marginBottom=0;whiteSpace=wrap;html=1;" vertex="1" parent="1">
          <mxGeometry x="565" y="170" width="125" height="120" as="geometry" />
        </mxCell>
        <mxCell id="n3-XZlE6_MYXK0TuiOmz-43" value="Option 1" style="text;strokeColor=none;align=left;verticalAlign=middle;spacingLeft=27;spacingRight=10;overflow=hidden;points=[[0,0.5],[1,0.5]];portConstraint=eastwest;rotatable=0;whiteSpace=wrap;html=1;fillColor=none;fontColor=inherit;fontSize=17;" vertex="1" parent="n3-XZlE6_MYXK0TuiOmz-42">
          <mxGeometry width="125" height="30" as="geometry" />
        </mxCell>
        <mxCell id="n3-XZlE6_MYXK0TuiOmz-44" value="" style="resizable=0;fillColor=#EEEEEE;strokeColor=#999999;gradientColor=#cccccc;html=1;" vertex="1" parent="n3-XZlE6_MYXK0TuiOmz-43">
          <mxGeometry y="0.5" width="15" height="15" relative="1" as="geometry">
            <mxPoint x="8" y="-7.5" as="offset" />
          </mxGeometry>
        </mxCell>
        <mxCell id="n3-XZlE6_MYXK0TuiOmz-45" value="Option 2" style="text;strokeColor=none;align=left;verticalAlign=middle;spacingLeft=27;spacingRight=10;overflow=hidden;points=[[0,0.5],[1,0.5]];portConstraint=eastwest;rotatable=0;whiteSpace=wrap;html=1;rSize=5;fillColor=none;fontColor=inherit;fontSize=17;" vertex="1" parent="n3-XZlE6_MYXK0TuiOmz-42">
          <mxGeometry y="30" width="125" height="30" as="geometry" />
        </mxCell>
        <mxCell id="n3-XZlE6_MYXK0TuiOmz-46" value="" style="resizable=0;fillColor=#EEEEEE;strokeColor=#999999;gradientColor=#cccccc;html=1;" vertex="1" parent="n3-XZlE6_MYXK0TuiOmz-45">
          <mxGeometry y="0.5" width="15" height="15" relative="1" as="geometry">
            <mxPoint x="8" y="-7.5" as="offset" />
          </mxGeometry>
        </mxCell>
        <mxCell id="n3-XZlE6_MYXK0TuiOmz-47" value="Option 3" style="text;strokeColor=none;align=left;verticalAlign=middle;spacingLeft=27;spacingRight=10;overflow=hidden;points=[[0,0.5],[1,0.5]];portConstraint=eastwest;rotatable=0;whiteSpace=wrap;html=1;rSize=5;fillColor=none;fontColor=#008CFF;fontSize=17;" vertex="1" parent="n3-XZlE6_MYXK0TuiOmz-42">
          <mxGeometry y="60" width="125" height="30" as="geometry" />
        </mxCell>
        <mxCell id="n3-XZlE6_MYXK0TuiOmz-48" value="" style="shape=mxgraph.mockup.forms.checkbox;resizable=0;fillColor=#AAAAAA;gradientColor=#666666;strokeColor=#444444;html=1;" vertex="1" parent="n3-XZlE6_MYXK0TuiOmz-47">
          <mxGeometry y="0.5" width="15" height="15" relative="1" as="geometry">
            <mxPoint x="8" y="-7.5" as="offset" />
          </mxGeometry>
        </mxCell>
        <mxCell id="n3-XZlE6_MYXK0TuiOmz-49" value="Option 4" style="text;strokeColor=none;align=left;verticalAlign=middle;spacingLeft=27;spacingRight=10;overflow=hidden;points=[[0,0.5],[1,0.5]];portConstraint=eastwest;rotatable=0;whiteSpace=wrap;html=1;fillColor=none;fontColor=inherit;fontSize=17;" vertex="1" parent="n3-XZlE6_MYXK0TuiOmz-42">
          <mxGeometry y="90" width="125" height="30" as="geometry" />
        </mxCell>
        <mxCell id="n3-XZlE6_MYXK0TuiOmz-50" value="" style="resizable=0;fillColor=#EEEEEE;strokeColor=#999999;gradientColor=#cccccc;html=1;" vertex="1" parent="n3-XZlE6_MYXK0TuiOmz-49">
          <mxGeometry y="0.5" width="15" height="15" relative="1" as="geometry">
            <mxPoint x="8" y="-7.5" as="offset" />
          </mxGeometry>
        </mxCell>
        <mxCell id="n3-XZlE6_MYXK0TuiOmz-51" value="" style="endArrow=classic;html=1;rounded=0;exitX=0.489;exitY=0.947;exitDx=0;exitDy=0;exitPerimeter=0;entryX=0.489;entryY=-0.033;entryDx=0;entryDy=0;entryPerimeter=0;" edge="1" parent="1" source="n3-XZlE6_MYXK0TuiOmz-5" target="n3-XZlE6_MYXK0TuiOmz-43">
          <mxGeometry width="50" height="50" relative="1" as="geometry">
            <mxPoint x="600" y="160" as="sourcePoint" />
            <mxPoint x="650" y="110" as="targetPoint" />
          </mxGeometry>
        </mxCell>
        <mxCell id="n3-XZlE6_MYXK0TuiOmz-52" value="" style="endArrow=classic;html=1;rounded=0;exitX=0.45;exitY=1.075;exitDx=0;exitDy=0;exitPerimeter=0;entryX=0.396;entryY=0.002;entryDx=0;entryDy=0;entryPerimeter=0;" edge="1" parent="1" source="n3-XZlE6_MYXK0TuiOmz-32" target="n3-XZlE6_MYXK0TuiOmz-64">
          <mxGeometry width="50" height="50" relative="1" as="geometry">
            <mxPoint x="350" y="450" as="sourcePoint" />
            <mxPoint x="371" y="520" as="targetPoint" />
          </mxGeometry>
        </mxCell>
        <mxCell id="n3-XZlE6_MYXK0TuiOmz-53" value="From" style="strokeWidth=1;shadow=0;dashed=0;align=center;html=1;shape=mxgraph.mockup.forms.anchor;align=right;spacingRight=2;fontColor=#666666;" vertex="1" parent="1">
          <mxGeometry x="213" y="530" width="50" height="18" as="geometry" />
        </mxCell>
        <mxCell id="n3-XZlE6_MYXK0TuiOmz-54" value="john@jgraph.com" style="strokeWidth=1;shadow=0;dashed=0;align=center;html=1;shape=mxgraph.mockup.forms.rrect;fillColor=#ffffff;rSize=0;fontColor=#666666;align=left;spacingLeft=3;strokeColor=#999999;" vertex="1" parent="1">
          <mxGeometry x="263" y="530" width="350" height="18" as="geometry" />
        </mxCell>
        <mxCell id="n3-XZlE6_MYXK0TuiOmz-55" value="Subject" style="strokeWidth=1;shadow=0;dashed=0;align=center;html=1;shape=mxgraph.mockup.forms.anchor;align=right;spacingRight=2;fontColor=#666666;" vertex="1" parent="1">
          <mxGeometry x="213" y="565" width="50" height="18" as="geometry" />
        </mxCell>
        <mxCell id="n3-XZlE6_MYXK0TuiOmz-56" value="Greeting" style="strokeWidth=1;shadow=0;dashed=0;align=center;html=1;shape=mxgraph.mockup.forms.rrect;fillColor=#ffffff;rSize=0;fontColor=#666666;align=left;spacingLeft=3;strokeColor=#999999;" vertex="1" parent="1">
          <mxGeometry x="263" y="565" width="350" height="18" as="geometry" />
        </mxCell>
        <mxCell id="n3-XZlE6_MYXK0TuiOmz-57" value="To" style="strokeWidth=1;shadow=0;dashed=0;align=center;html=1;shape=mxgraph.mockup.forms.anchor;align=right;spacingRight=2;fontColor=#666666;" vertex="1" parent="1">
          <mxGeometry x="213" y="600" width="50" height="18" as="geometry" />
        </mxCell>
        <mxCell id="n3-XZlE6_MYXK0TuiOmz-58" value="fred@jgraph.com" style="strokeWidth=1;shadow=0;dashed=0;align=center;html=1;shape=mxgraph.mockup.forms.rrect;fillColor=#ffffff;rSize=0;fontColor=#666666;align=left;spacingLeft=3;strokeColor=#999999;" vertex="1" parent="1">
          <mxGeometry x="263" y="600" width="350" height="18" as="geometry" />
        </mxCell>
        <mxCell id="n3-XZlE6_MYXK0TuiOmz-59" value="CC" style="strokeWidth=1;shadow=0;dashed=0;align=center;html=1;shape=mxgraph.mockup.forms.anchor;align=right;spacingRight=2;fontColor=#666666;" vertex="1" parent="1">
          <mxGeometry x="213" y="635" width="50" height="18" as="geometry" />
        </mxCell>
        <mxCell id="n3-XZlE6_MYXK0TuiOmz-60" value="" style="strokeWidth=1;shadow=0;dashed=0;align=center;html=1;shape=mxgraph.mockup.forms.rrect;fillColor=#ffffff;rSize=0;fontColor=#666666;align=left;spacingLeft=3;strokeColor=#999999;" vertex="1" parent="1">
          <mxGeometry x="263" y="635" width="350" height="18" as="geometry" />
        </mxCell>
        <mxCell id="n3-XZlE6_MYXK0TuiOmz-61" value="BCC" style="strokeWidth=1;shadow=0;dashed=0;align=center;html=1;shape=mxgraph.mockup.forms.anchor;align=right;spacingRight=2;fontColor=#666666;" vertex="1" parent="1">
          <mxGeometry x="213" y="670" width="50" height="18" as="geometry" />
        </mxCell>
        <mxCell id="n3-XZlE6_MYXK0TuiOmz-62" value="" style="strokeWidth=1;shadow=0;dashed=0;align=center;html=1;shape=mxgraph.mockup.forms.rrect;fillColor=#ffffff;rSize=0;fontColor=#666666;align=left;spacingLeft=3;strokeColor=#999999;" vertex="1" parent="1">
          <mxGeometry x="263" y="670" width="350" height="18" as="geometry" />
        </mxCell>
        <mxCell id="n3-XZlE6_MYXK0TuiOmz-63" value="Lorem ipsum dolor sit amet, consectetur adipisicing elit, sed do eiusmod tempor incididunt ut labore et dolore magna aliqua. Ut enim ad minim veniam, quis nostrud exercitation ullamco laboris nisi ut aliquip ex ea commodo consequat. Duis aute irure dolor in reprehenderit in voluptate velit esse cillum dolore eu fugiat nulla pariatur. Excepteur sint occaecat cupidatat non proident, sunt in culpa qui officia deserunt mollit anim id est laborum." style="strokeWidth=1;shadow=0;dashed=0;align=center;html=1;shape=mxgraph.mockup.forms.rrect;fillColor=#ffffff;rSize=0;fontColor=#666666;align=left;spacingLeft=3;strokeColor=#999999;verticalAlign=top;whiteSpace=wrap;" vertex="1" parent="1">
          <mxGeometry x="213" y="705" width="400" height="125" as="geometry" />
        </mxCell>
        <mxCell id="n3-XZlE6_MYXK0TuiOmz-64" value="" style="swimlane;startSize=0;" vertex="1" parent="1">
          <mxGeometry x="200" y="520" width="430" height="320" as="geometry" />
        </mxCell>
      </root>
    </mxGraphModel>
  </diagram>
</mxfile>
